<svg xmlns="http://www.w3.org/2000/svg" width="158" height="26" viewBox="0 0 158 26">
  <path id="Aavya" d="M17.552,2.843c-.4-1.645-1.3-1.548-1.3-1.548-.7-.194-1,.677-1,.677L4,25.68c-.5,1.064.3,1.258.3,1.258H7.614c1-.1,1-.29,1-.29l7.629-16.257,7.629,15.87a1.905,1.905,0,0,0,.7.677H27.89c1.3,0,.7-1.258.7-1.258ZM65.331,25l-.3-.581a2.857,2.857,0,0,0-.4-.774c-.1-.29-.3-.581-.4-.871-.2-.387-.3-.677-.5-1.064a5.8,5.8,0,0,1-.5-1.161c-.2-.387-.4-.774-.6-1.258-.2-.387-.4-.871-.6-1.258-.2-.484-.4-.871-.6-1.355a5.831,5.831,0,0,0-.7-1.355,5.831,5.831,0,0,0-.7-1.355,5.831,5.831,0,0,0-.7-1.355l-.6-1.355c-.2-.484-.4-.871-.6-1.355-.2-.387-.4-.871-.6-1.258l-.6-1.161c-.2-.387-.3-.677-.5-1.064-.2-.29-.3-.677-.5-.968-.1-.29-.3-.581-.4-.871-.1-.194-.2-.484-.3-.677a1.6,1.6,0,0,1-.2-.484c-.1-.1-.1-.194-.2-.29a.1.1,0,0,0-.1-.1c-.4-1.645-1.3-1.548-1.3-1.548-.7-.194-1,.677-1,.677a.1.1,0,0,1-.1.1c0,.1-.1.194-.1.29l-.2.484a4.63,4.63,0,0,0-.3.677,2.857,2.857,0,0,1-.4.774c-.1.29-.3.581-.4.871-.2.387-.3.677-.5,1.064a5.8,5.8,0,0,0-.5,1.161l-.6,1.161-.5.968c-.2.484-.4.871-.6,1.355s-.4.871-.6,1.355-.4.871-.6,1.355l-.6,1.355-.7,1.355-.6,1.355c-.2.387-.4.871-.6,1.258l-.6,1.161a5.8,5.8,0,0,0-.5,1.161c-.2.387-.3.677-.5,1.064l-.4.871a2.857,2.857,0,0,1-.4.774,4.63,4.63,0,0,0-.3.677c-.1.194-.2.29-.2.484-.1.194-.1.29-.2.484,0,.1-.1.194-.1.29,0,.194-.1.387,0,.484a1.342,1.342,0,0,0,.3.387c.1.1.3,0,.5,0h2.208a6.4,6.4,0,0,0,1.405-.1c.1,0,.2-.1.3-.194s.1-.29.2-.387l.3-.581a1.92,1.92,0,0,1,.4-.774c.2-.29.3-.677.5-.968a5.8,5.8,0,0,0,.5-1.161c.2-.387.4-.871.6-1.258.2-.484.4-.871.6-1.355s.4-.871.6-1.355.4-.871.6-1.355.4-.871.6-1.355l.6-1.258.6-1.161c.2-.387.3-.677.5-1.064.1-.29.3-.581.4-.871.1-.194.2-.484.3-.677.1-.1.1-.29.2-.387l.1-.194c0,.1,0,.1.1.194l.2.387c.1.194.2.484.3.677.1.29.3.581.4.871.2.387.3.677.5,1.064l.6,1.161c.2.387.4.871.6,1.258.2.484.4.871.6,1.355l.6,1.355c.2.484.4.871.6,1.355.2.387.4.871.6,1.258s.4.774.6,1.258a9.267,9.267,0,0,1,.5,1.064c.2.29.3.677.5.968a2.857,2.857,0,0,0,.4.774l.3.581a2.02,2.02,0,0,0,.4.581,1,1,0,0,0,.5.387h3.513a.555.555,0,0,0,.5-.29.8.8,0,0,0,0-.774C65.632,25.584,65.532,25.293,65.331,25ZM98.857,1.2H95.545c-1,.1-1,.29-1,.29L87.113,17.842,79.384,1.875a1.905,1.905,0,0,0-.7-.677H75.369c-1.3,0-.7,1.258-.7,1.258l.1.1a8.868,8.868,0,0,0,.5.968c.2.484.5,1.064.7,1.548.3.677.7,1.355,1,2.129.4.774.8,1.645,1.2,2.419.4.871.9,1.839,1.3,2.71.4.968.9,1.839,1.3,2.806l1.3,2.71c0,.1,0,.1.1.194.8,1.645,1.606,3.387,2.409,5.032.4.871.8,1.742,1.1,2.516.2.581.6,1.355,1.405,1.355.6,0,.9-.677,1.1-1.161.1-.29.2-.484.3-.774.7-1.645,1.606-3.387,2.409-5.032.4-.968.9-1.839,1.3-2.806l1.405-2.9c.5-.968.9-1.935,1.405-2.9.4-.968.9-1.839,1.3-2.806l1.1-2.419c.3-.677.6-1.258.9-1.935l.6-1.258c.1-.194.1-.29.2-.484C99.66,1.391,98.857,1.2,98.857,1.2Zm32.924.677c-.1-.1-.3,0-.4,0h-3.312a1.99,1.99,0,0,0-1,.29l-.1.1c-.1.194-.3.387-.4.581l-.4.581c-.2.194-.3.484-.5.677-.2.29-.4.484-.6.774l-.6.871-.6.871-.6.871a5.39,5.39,0,0,1-.6.774,3.378,3.378,0,0,0-.5.774,4.1,4.1,0,0,0-.5.677,1.71,1.71,0,0,1-.4.484c-.1.1-.2.194-.2.29l-.1.1-5.722-8.322a.676.676,0,0,0-.7-.29H110.9a.659.659,0,0,0-.7.968l8.231,12.1V26.455c0,.581.3.677.3.677h3.915a.672.672,0,0,0,.7-.677l-.1-11.419,8.733-12.1c.1-.194.2-.387.1-.581C132.082,2.069,131.882,1.972,131.781,1.875Zm29.411,22.644c-.3-.581-.5-1.064-.8-1.645-.3-.677-.7-1.452-1-2.129-.4-.871-.8-1.645-1.2-2.516l-1.3-2.71-1.3-2.806-1.3-2.71-1.2-2.516c-.3-.677-.7-1.355-1-2.129-.3-.484-.5-1.064-.8-1.548a7.611,7.611,0,0,0-1-2.226,1.029,1.029,0,0,0-1.807.194l-.3.581-1.3,2.71c-.7,1.355-1.3,2.806-2.008,4.161-.8,1.645-1.506,3.29-2.309,4.935s-1.506,3.193-2.309,4.838c-.6,1.355-1.2,2.613-1.907,3.968a9.607,9.607,0,0,1-.7,1.452c-.2.387-.4.774-.6,1.258,0,.1-.1.29-.1.387a.638.638,0,0,0,.3.774c.2.194.5.1.8.1h1a13.949,13.949,0,0,0,2.008-.1.934.934,0,0,0,.5-.1c.4-.194.5-.774.7-1.161.6-1.258,1.2-2.613,1.807-3.871.8-1.645,1.606-3.387,2.409-5.032.7-1.452,1.405-2.9,2.108-4.451.3-.677.6-1.258.9-1.935,0,.1.2.387.2.484l1.506,3.193c.8,1.548,1.506,3.193,2.309,4.742.7,1.548,1.506,3.1,2.208,4.645.3.581.5,1.161.8,1.645a7.932,7.932,0,0,0,.9,1.548c.1.1.2.1.3.194h.2c1,0,2.108.1,3.212,0a.725.725,0,0,0,.6-.29c.1-.194.2-.387.1-.581A6.889,6.889,0,0,0,161.192,24.519Z" transform="translate(-3.836 -1.132)"/>
</svg>
