<svg xmlns="http://www.w3.org/2000/svg" xmlns:xlink="http://www.w3.org/1999/xlink" width="30" height="30" viewBox="0 0 30 30">
  <defs>
    <clipPath id="clip-path">
      <rect id="Rectangle_387" data-name="Rectangle 387" width="30" height="30" transform="translate(1045 696)" stroke="#707070" stroke-width="1"/>
    </clipPath>
  </defs>
  <g id="Mask_Group_48" data-name="Mask Group 48" transform="translate(-1045 -696)" clip-path="url(#clip-path)">
    <g id="_01-like" data-name="01-like" transform="translate(1045 696.006)">
      <path id="Path_456" data-name="Path 456" d="M26.25,0H3.75A3.754,3.754,0,0,0,0,3.75v25a1.261,1.261,0,0,0,2.019.985L8.086,25H26.25A3.754,3.754,0,0,0,30,21.25V3.75A3.754,3.754,0,0,0,26.25,0ZM27.5,21.25a1.251,1.251,0,0,1-1.25,1.25H7.656a1.25,1.25,0,0,0-.769.265L2.5,26.189V3.75A1.251,1.251,0,0,1,3.75,2.5h22.5A1.251,1.251,0,0,1,27.5,3.75Z"/>
      <path id="Path_457" data-name="Path 457" d="M21.052,7.147C20.259,6.5,18.158,5.31,15,7.37,11.842,5.31,9.741,6.5,8.947,7.147a5.081,5.081,0,0,0-1.315,5.912c1.734,3.469,6.687,5.514,6.9,5.6a1.25,1.25,0,0,0,.941,0c.21-.085,5.163-2.13,6.9-5.6A5.081,5.081,0,0,0,21.052,7.147Zm-.92,4.794c-.967,1.934-3.7,3.522-5.132,4.193-1.432-.672-4.165-2.26-5.132-4.193a2.609,2.609,0,0,1,.662-2.859,1.627,1.627,0,0,1,1.061-.367A4.86,4.86,0,0,1,14.23,9.891a1.25,1.25,0,0,0,1.539,0c.9-.7,2.568-1.735,3.7-.809A2.609,2.609,0,0,1,20.132,11.941Z"/>
    </g>
  </g>
</svg>
