<svg xmlns="http://www.w3.org/2000/svg" xmlns:xlink="http://www.w3.org/1999/xlink" width="52" height="52" viewBox="0 0 52 52">
  <defs>
    <clipPath id="clip-path">
      <rect id="Rectangle_206" data-name="Rectangle 206" width="52" height="52" transform="translate(492 6782)" fill="#1ca1fd"/>
    </clipPath>
  </defs>
  <g id="Mask_Group_46" data-name="Mask Group 46" transform="translate(-492 -6782)" clip-path="url(#clip-path)">
    <g id="money" transform="translate(492 6782)">
      <g id="Group_264" data-name="Group 264">
        <g id="Group_263" data-name="Group 263">
          <path id="Path_178" data-name="Path 178" d="M26,0A23.427,23.427,0,0,0,2.6,23.4v6.933C2.6,42.28,13.1,52,26,52s23.4-9.72,23.4-21.667V23.4A23.427,23.427,0,0,0,26,0ZM7.8,38.133v3a18.815,18.815,0,0,1-3.327-8.56A23.418,23.418,0,0,0,7.808,38.1C7.807,38.109,7.8,38.12,7.8,38.133Zm4.333,7.5a21.128,21.128,0,0,1-2.6-2.369v-3.26a23.627,23.627,0,0,0,2.6,2.227Zm4.333,2.592A22.2,22.2,0,0,1,13.806,46.8h.061V43.4a23.281,23.281,0,0,0,2.6,1.36ZM20.8,49.683a22.847,22.847,0,0,1-2.6-.757V45.458a23.117,23.117,0,0,0,2.6.752Zm4.333.564a23.488,23.488,0,0,1-2.6-.238V46.542a23.367,23.367,0,0,0,2.6.237Zm4.333-.238a23.486,23.486,0,0,1-2.6.238V46.778a23.344,23.344,0,0,0,2.6-.237ZM33.8,48.925a22.847,22.847,0,0,1-2.6.757V46.211a23.117,23.117,0,0,0,2.6-.752Zm1.733-.7V44.762a23.418,23.418,0,0,0,2.6-1.36v3.4h.061A22.23,22.23,0,0,1,35.533,48.228Zm6.933-4.961a21.128,21.128,0,0,1-2.6,2.369v-3.4a23.517,23.517,0,0,0,2.6-2.227ZM44.2,41.129v-3c0-.014-.007-.025-.008-.038a23.429,23.429,0,0,0,3.335-5.526A18.813,18.813,0,0,1,44.2,41.129ZM26,45A21.6,21.6,0,1,1,47.6,23.4,21.624,21.624,0,0,1,26,45Z"/>
        </g>
      </g>
      <g id="Group_266" data-name="Group 266">
        <g id="Group_265" data-name="Group 265">
          <path id="Path_179" data-name="Path 179" d="M26,5.4a18,18,0,1,0,18,18A18.02,18.02,0,0,0,26,5.4Zm0,34.2A16.2,16.2,0,1,1,42.2,23.4,16.219,16.219,0,0,1,26,39.6Z"/>
        </g>
      </g>
      <g id="Group_268" data-name="Group 268">
        <g id="Group_267" data-name="Group 267">
          <path id="Path_180" data-name="Path 180" d="M26.867,22.7V15.91c3.092.143,4.185,1.048,4.738,1.745a.866.866,0,0,0,1.358-1.076c-1.2-1.506-3.149-2.272-6.1-2.4V12.928a.867.867,0,1,0-1.733,0V14.2c-3.839.349-5.877,2.714-5.912,5.029-.034,2.22,1.792,4.535,5.912,4.973V30.9c-2.654-.077-3.563-.552-4.8-1.819A.867.867,0,0,0,19.1,30.287c1.646,1.693,3.032,2.26,6.037,2.345v1.24a.867.867,0,0,0,1.733,0V32.6c3.5-.31,6.1-2.112,6.3-4.472C33.251,27.183,33,24.1,26.867,22.7Zm-1.733-.258c-2.893-.365-4.2-1.805-4.178-3.19.023-1.491,1.471-3,4.178-3.3Zm6.311,5.53c-.109,1.266-1.836,2.589-4.578,2.871V24.483C30.363,25.364,31.538,26.876,31.444,27.977Z"/>
        </g>
      </g>
    </g>
  </g>
</svg>
