<svg xmlns="http://www.w3.org/2000/svg" xmlns:xlink="http://www.w3.org/1999/xlink" width="50" height="50" viewBox="0 0 50 50">
  <defs>
    <clipPath id="clip-path">
      <rect id="Rectangle_19" data-name="Rectangle 19" width="50" height="50" transform="translate(1204 2205)" fill="#fff"/>
    </clipPath>
  </defs>
  <g id="Mask_Group_28" data-name="Mask Group 28" transform="translate(-1204 -2205)" clip-path="url(#clip-path)">
    <g id="_003-color-palette" data-name="003-color-palette" transform="translate(1208.6 2210.5)">
      <path id="Path_73" data-name="Path 73" d="M9.557,18.721a4.419,4.419,0,1,0,4.419,4.419A4.424,4.424,0,0,0,9.557,18.721Zm0,6.436a2.017,2.017,0,1,1,2.017-2.017A2.019,2.019,0,0,1,9.557,25.157Z" transform="translate(-0.855 -4.054)" fill="#fff"/>
      <path id="Path_74" data-name="Path 74" d="M18.945,31.242a4.419,4.419,0,1,0,4.419,4.419A4.424,4.424,0,0,0,18.945,31.242Zm0,6.436a2.017,2.017,0,1,1,2.017-2.017A2.019,2.019,0,0,1,18.945,37.678Z" transform="translate(-2.416 -6.137)" fill="#fff"/>
      <path id="Path_75" data-name="Path 75" d="M39.741,26.194l-.024-.023-4.16-3.926a7,7,0,0,0,2.424-7.761,19.5,19.5,0,1,0-7.845,22.44,4.323,4.323,0,0,0-2.356-7.942,2.67,2.67,0,0,1-.717-5.254l7.329,7.767.023.024a3.766,3.766,0,1,0,5.326-5.325ZM24.219,29.966a5.156,5.156,0,0,0,3.561,1.418,1.917,1.917,0,0,1,1.041,3.529A17.066,17.066,0,1,1,35.7,15.24a4.586,4.586,0,0,1-1.929,5.32l-6.673-6.3a5.953,5.953,0,0,0-1.622-5.451c-1.84-1.84-7.637-2.757-10.149-3.03A1.2,1.2,0,0,0,14,7.107c.275,2.522,1.187,8.305,3.03,10.149a5.954,5.954,0,0,0,5.451,1.621L25.3,21.856A5.051,5.051,0,0,0,24.219,29.966Zm-5.485-14.41c-.905-.905-1.714-4.348-2.141-7.186,2.838.427,6.281,1.236,7.186,2.141a3.567,3.567,0,1,1-5.045,5.045ZM38.045,29.823a1.363,1.363,0,0,1-1.919.009l-11.32-12a6.083,6.083,0,0,0,1.251-1.251l12,11.321A1.362,1.362,0,0,1,38.045,29.823Z" transform="translate(0 -1.127)" fill="#fff"/>
    </g>
  </g>
</svg>
