<svg xmlns="http://www.w3.org/2000/svg" xmlns:xlink="http://www.w3.org/1999/xlink" width="52" height="52" viewBox="0 0 52 52">
  <defs>
    <clipPath id="clip-path">
      <rect id="Rectangle_206" data-name="Rectangle 206" width="52" height="52" transform="translate(492 6782)" fill="#1ca1fd"/>
    </clipPath>
  </defs>
  <g id="Mask_Group_45" data-name="Mask Group 45" transform="translate(-492 -6782)" clip-path="url(#clip-path)">
    <g id="plant" transform="translate(492 6782)">
      <g id="Group_258" data-name="Group 258">
        <g id="Group_257" data-name="Group 257">
          <path id="Path_175" data-name="Path 175" d="M51.962,50.709A17.254,17.254,0,0,0,45.9,41.759a17,17,0,0,0-5.876-2.934,2.05,2.05,0,0,1,2.039-1.874,1.016,1.016,0,0,0,0-2.031A4.07,4.07,0,0,0,39,36.31a4.07,4.07,0,0,0-3.064-1.39,1.016,1.016,0,1,0,0,2.031,2.052,2.052,0,0,1,1.954,1.433,17.388,17.388,0,0,0-4.258-.071,8.927,8.927,0,0,0-6.422-4.176l.02-.018,3.71-3.71a14.458,14.458,0,0,0,3.268.363c.313,0,.641-.01.98-.031a15.213,15.213,0,0,0,9.892-4.6,15.214,15.214,0,0,0,4.6-9.892,13.777,13.777,0,0,0-.5-4.875,1.016,1.016,0,0,0-.712-.66l-.011,0a14.052,14.052,0,0,0-3.662-.511h-.012a1.016,1.016,0,0,0-.011,2.031,12.388,12.388,0,0,1,2.616.3,12.823,12.823,0,0,1,.262,3.672,13.09,13.09,0,0,1-4,8.5A13.044,13.044,0,0,1,32.7,28.653l7.447-7.447a1.016,1.016,0,0,0-1.436-1.436l-7.447,7.447a13.1,13.1,0,0,1,3.945-10.947,14.766,14.766,0,0,1,2.531-2.04,1.016,1.016,0,0,0-1.086-1.716,16.811,16.811,0,0,0-2.881,2.321,15.213,15.213,0,0,0-4.6,9.892,14.727,14.727,0,0,0,.332,4.248l-2.489,2.489V13.027c.117,0,.241,0,.373,0,1.991,0,5.554-.36,7.909-2.672,3.166-3.107,2.741-8.532,2.655-9.366a1.016,1.016,0,0,0-.946-.956C36.523,0,31.044-.4,27.81,2.772c-2.913,2.859-2.882,7.574-2.8,8.959a1.016,1.016,0,0,0-.024.22v3.881a15.668,15.668,0,0,0-2.351-2.986,14.494,14.494,0,0,0-9.425-4.38,13.136,13.136,0,0,0-4.648.48,1.015,1.015,0,0,0-.66.711l0,.009a14.274,14.274,0,0,0,3.924,13.991,14.493,14.493,0,0,0,9.425,4.379c.323.021.634.03.933.03a14.025,14.025,0,0,0,2.806-.278v6.325a8.927,8.927,0,0,0-6.617,4.2,17.388,17.388,0,0,0-4.258.071,2.052,2.052,0,0,1,1.954-1.433,1.016,1.016,0,1,0,0-2.031A4.07,4.07,0,0,0,13,36.31a4.07,4.07,0,0,0-3.064-1.39,1.016,1.016,0,1,0,0,2.031,2.05,2.05,0,0,1,2.039,1.874A17,17,0,0,0,6.1,41.76,17.254,17.254,0,0,0,.038,50.709,1.016,1.016,0,0,0,1.016,52H50.984a1.015,1.015,0,0,0,.978-1.29ZM29.232,4.222c1.975-1.937,5.21-2.188,6.749-2.188.042,1.579-.126,4.934-2.106,6.877a8.686,8.686,0,0,1-5.4,2.046L31.53,7.9a1.016,1.016,0,0,0-1.436-1.436L27.086,9.469A8.557,8.557,0,0,1,29.232,4.222ZM24.984,24c-.012.184-.027.36-.045.526L19.012,18.6a1.016,1.016,0,0,0-1.436,1.436L23.5,25.964a12.385,12.385,0,0,1-10.246-3.743A12.268,12.268,0,0,1,9.719,10.739a12.131,12.131,0,0,1,3.443-.24A12.379,12.379,0,0,1,21.2,14.282a12.378,12.378,0,0,1,3.783,8.034c0,.028,0,.054,0,.082V24ZM8.047,49.968h0a9.273,9.273,0,0,1,4.751-4.71,1.016,1.016,0,1,0-.817-1.86,11.3,11.3,0,0,0-6.12,6.57H2.42a15.122,15.122,0,0,1,16.348-9.557,1.016,1.016,0,0,0,1.053-.542,6.939,6.939,0,0,1,12.359,0,1.016,1.016,0,0,0,1.053.542A15.122,15.122,0,0,1,49.58,49.968Z"/>
        </g>
      </g>
      <g id="Group_260" data-name="Group 260">
        <g id="Group_259" data-name="Group 259">
          <path id="Path_176" data-name="Path 176" d="M41.856,11.453a1.016,1.016,0,0,0-1.251-.706l-.081.023a1.016,1.016,0,1,0,.56,1.953l.066-.019A1.016,1.016,0,0,0,41.856,11.453Z"/>
        </g>
      </g>
      <g id="Group_262" data-name="Group 262">
        <g id="Group_261" data-name="Group 261">
          <path id="Path_177" data-name="Path 177" d="M16.536,42.445h-.063a1.016,1.016,0,0,0,.005,2.031h.058a1.016,1.016,0,1,0,0-2.031Z"/>
        </g>
      </g>
    </g>
  </g>
</svg>
