<svg xmlns="http://www.w3.org/2000/svg" xmlns:xlink="http://www.w3.org/1999/xlink" width="52" height="52" viewBox="0 0 52 52">
  <defs>
    <clipPath id="clip-path">
      <rect id="Rectangle_206" data-name="Rectangle 206" width="52" height="52" transform="translate(492 6782)" fill="#1ca1fd"/>
    </clipPath>
  </defs>
  <g id="Mask_Group_44" data-name="Mask Group 44" transform="translate(-492 -6782)" clip-path="url(#clip-path)">
    <g id="rocket" transform="translate(492 6782)">
      <path id="Path_170" data-name="Path 170" d="M51.939,3.882A4.042,4.042,0,0,0,48.118.061,40.14,40.14,0,0,0,28,4.089,39.5,39.5,0,0,0,16.46,13.654l-.123.149-7.615.588a4.02,4.02,0,0,0-3.063,1.8l-5.2,7.858a2.785,2.785,0,0,0,1.9,4.287l6.416.994c-.023.125-.045.249-.066.374a4.04,4.04,0,0,0,1.133,3.514l8.937,8.937a4.05,4.05,0,0,0,2.858,1.187,3.982,3.982,0,0,0,.656-.054c.125-.021.249-.044.374-.066l.994,6.416a2.782,2.782,0,0,0,4.287,1.9l7.858-5.2a4.019,4.019,0,0,0,1.8-3.063l.588-7.615.149-.123A39.5,39.5,0,0,0,47.911,24,40.143,40.143,0,0,0,51.939,3.882ZM34.125,43.8l-7.517,4.97-.968-6.253a34.128,34.128,0,0,0,9.313-4.434l-.383,4.961a.992.992,0,0,1-.445.756ZM20.933,40,12,31.067a.987.987,0,0,1-.282-.857,26.208,26.208,0,0,1,1.19-4.526L26.313,39.093a26.318,26.318,0,0,1-4.523,1.192A.988.988,0,0,1,20.933,40ZM8.957,17.429l4.961-.383A34.125,34.125,0,0,0,9.483,26.36L3.23,25.391,8.2,17.874A.993.993,0,0,1,8.957,17.429ZM36.394,33.2a34.929,34.929,0,0,1-7.052,4.612L14.187,22.657A35.533,35.533,0,0,1,18.8,15.606,36.357,36.357,0,0,1,29.4,6.795,37.057,37.057,0,0,1,47.952,3.1a1,1,0,0,1,.945.945A37.054,37.054,0,0,1,45.2,22.6,36.357,36.357,0,0,1,36.394,33.2Z"/>
      <path id="Path_171" data-name="Path 171" d="M35.62,23.993a7.611,7.611,0,1,0-5.386-2.227,7.6,7.6,0,0,0,5.386,2.227ZM32.388,13.148A4.57,4.57,0,1,1,31.05,16.38,4.556,4.556,0,0,1,32.388,13.148Z"/>
      <path id="Path_172" data-name="Path 172" d="M1.554,42.853a1.518,1.518,0,0,0,1.077-.446L7.6,37.433a1.523,1.523,0,0,0-2.154-2.154L.477,40.252a1.523,1.523,0,0,0,1.077,2.6Z"/>
      <path id="Path_173" data-name="Path 173" d="M12.163,39.837a1.523,1.523,0,0,0-2.154,0L.446,49.4A1.523,1.523,0,1,0,2.6,51.554l9.562-9.562a1.523,1.523,0,0,0,0-2.154Z"/>
      <path id="Path_174" data-name="Path 174" d="M14.567,44.395,9.593,49.369a1.523,1.523,0,1,0,2.154,2.154l4.974-4.974a1.523,1.523,0,0,0-2.154-2.154Z"/>
    </g>
  </g>
</svg>
