<svg xmlns="http://www.w3.org/2000/svg" xmlns:xlink="http://www.w3.org/1999/xlink" width="50" height="50" viewBox="0 0 50 50">
  <defs>
    <clipPath id="clip-path">
      <rect id="Rectangle_19" data-name="Rectangle 19" width="50" height="50" transform="translate(342.168 2205)" fill="#fff"/>
    </clipPath>
  </defs>
  <g id="Mask_Group_26" data-name="Mask Group 26" transform="translate(-342.168 -2205)" clip-path="url(#clip-path)">
    <path id="_001-chess" data-name="001-chess" d="M31.367,36.088l-1.973-3.947a6.966,6.966,0,0,0,1.457-8.174L29.277,20.82l1.307.653a4.066,4.066,0,0,0,4.942-6.239L30.418,9.1a4.078,4.078,0,0,0-2.741-3.349V1.294A1.294,1.294,0,0,0,26.383,0H25A16.559,16.559,0,0,0,8.457,16.54v8.316A1.294,1.294,0,0,0,9.751,26.15H15.3a1.476,1.476,0,0,1,1.477,1.477v3.854l-2.3,4.606a6.837,6.837,0,0,0-6.013,6.787,1.294,1.294,0,0,0,1.294,1.294H36.085a1.294,1.294,0,0,0,1.294-1.294,6.847,6.847,0,0,0-6.013-6.786Zm-12.5-3.008h8.1l1.478,2.956H17.389ZM11.045,16.54A13.968,13.968,0,0,1,25,2.588h.092V5.544H25a11.008,11.008,0,0,0-11,11v7.022H11.045Zm5.544,7.231V16.54A8.418,8.418,0,0,1,25,8.132h1.386A1.48,1.48,0,0,1,27.861,9.61a1.294,1.294,0,0,0,.3.828l5.377,6.452a1.478,1.478,0,0,1-1.8,2.268l-2.006-1a1.294,1.294,0,0,0-.579-.137h-2.1a3.561,3.561,0,0,1-3.533-3.557,1.294,1.294,0,1,0-2.588,0,6.155,6.155,0,0,0,5.318,6.09l2.286,4.573a4.373,4.373,0,0,1-1.185,5.368H19.361V27.627a4.061,4.061,0,0,0-2.772-3.856ZM11.249,41.58a4.244,4.244,0,0,1,4.045-2.956H30.541A4.258,4.258,0,0,1,34.59,41.58Z" transform="translate(344.71 2208)" fill="#fff"/>
  </g>
</svg>
