<svg xmlns="http://www.w3.org/2000/svg" xmlns:xlink="http://www.w3.org/1999/xlink" width="22" height="22" viewBox="0 0 22 22">
  <defs>
    <linearGradient id="linear-gradient" x1="0.5" x2="0.5" y2="1" gradientUnits="objectBoundingBox">
      <stop offset="0" stop-color="#1ca1fd"/>
      <stop offset="1" stop-color="#89c1e7"/>
    </linearGradient>
    <clipPath id="clip-path">
      <rect id="Rectangle_78" data-name="Rectangle 78" width="22" height="22" fill="url(#linear-gradient)"/>
    </clipPath>
  </defs>
  <g id="twit-social" clip-path="url(#clip-path)">
    <path id="_003-twitter" data-name="003-twitter" d="M8.207,18.006a18.877,18.877,0,0,1-2.916-.231A13.684,13.684,0,0,1,1.3,16.323L0,15.61l1.411-.464c1.543-.507,2.481-.822,3.643-1.315a4.846,4.846,0,0,1-2.491-2.886l-.328-1,.269.041a4.9,4.9,0,0,1-.613-.756A4.641,4.641,0,0,1,1.1,6.474l.062-.87.521.2a4.869,4.869,0,0,1-.472-1.322A5.033,5.033,0,0,1,1.75,1.1L2.2.262l.607.729a11.167,11.167,0,0,0,7.234,4.073,4.327,4.327,0,0,1,.263-2.3A4.3,4.3,0,0,1,12.057.759,5.256,5.256,0,0,1,15.108.01,4.872,4.872,0,0,1,18.1,1.245,10.054,10.054,0,0,0,19.2.879c.24-.09.513-.193.854-.311L21.309.135l-.82,2.341c.054,0,.11-.008.168-.011L22,2.4l-.793,1.084c-.045.062-.057.08-.073.1-.064.1-.144.216-1.232,1.67A2.051,2.051,0,0,0,19.518,6.6a12.631,12.631,0,0,1-.689,5.08,8.99,8.99,0,0,1-2.413,3.575A10.659,10.659,0,0,1,11.363,17.7a15.554,15.554,0,0,1-3.155.31Zm0,0" transform="translate(0 1.997)" fill="url(#linear-gradient)"/>
  </g>
</svg>
