<svg id="Layer_2" data-name="Layer 2" xmlns="http://www.w3.org/2000/svg" width="276.667" height="34.636" viewBox="0 0 276.667 34.636">
  <g id="Layer_1" data-name="Layer 1" transform="translate(0 0)">
    <path id="Trazado_300" data-name="Trazado 300" d="M10.824,4.206c-1.639,0-2.1.727-2.1,2.319V9.169h4.36l-.433,4.268H8.736V26.41H3.51V13.437H0V9.169H3.51V6.6c0-4.314,1.747-6.6,6.6-6.6A24.74,24.74,0,0,1,13.2.186v4.02Z" transform="translate(0 0)" fill="#4267b1"/>
    <path id="Trazado_301" data-name="Trazado 301" d="M8.69,14.151c0-4.824,2.288-8.458,7.066-8.458A5.118,5.118,0,0,1,20.72,8.708V6.064h5.01V23.3H20.72v-2.6a5.056,5.056,0,0,1-4.963,2.969c-4.778,0-7.066-3.634-7.066-8.442ZM13.916,15.3c0,2.582.943,4.283,3.371,4.283,2.134,0,3.216-1.546,3.216-4.02V13.811c0-2.459-1.082-4.02-3.216-4.02-2.428,0-3.371,1.7-3.371,4.283Z" transform="translate(4.747 3.105)" fill="#4267b1"/>
    <path id="Trazado_302" data-name="Trazado 302" d="M29.875,5.693a9.648,9.648,0,0,1,5.041,1.16l-1.16,3.7a8.381,8.381,0,0,0-3.479-.789c-2.83,0-4.051,1.546-4.051,4.422v1.005c0,2.8,1.222,4.422,4.051,4.422a8.149,8.149,0,0,0,3.479-.789l1.16,3.7a9.494,9.494,0,0,1-4.994,1.16c-6.185,0-8.922-3.293-8.922-8.6v-.789C21,9,23.752,5.693,29.875,5.693Z" transform="translate(11.471 3.105)" fill="#4267b1"/>
    <path id="Trazado_303" data-name="Trazado 303" d="M30.42,15.344V13.8c0-4.886,2.783-8.118,8.473-8.118,5.365,0,7.731,3.263,7.731,8.056v2.752H35.646c.108,2.35,1.16,3.4,4.067,3.4a14.828,14.828,0,0,0,5.52-1.036l.943,3.587a16.823,16.823,0,0,1-6.711,1.268C32.863,23.709,30.42,20.416,30.42,15.344ZM35.631,13.1h6.309v-.448c0-1.84-.758-3.386-3.046-3.386s-3.263,1.546-3.263,3.835Z" transform="translate(16.616 3.103)" fill="#4267b1"/>
    <path id="Trazado_304" data-name="Trazado 304" d="M59.463,18.338c0,4.809-2.3,8.442-7.1,8.442a5.365,5.365,0,0,1-5.149-2.969v2.6H42.3V.51L47.511,0V11.566A5.2,5.2,0,0,1,52.366,8.8c4.793,0,7.1,3.634,7.1,8.458Zm-5.257-1.206c0-2.428-.943-4.237-3.448-4.237-2.134,0-3.293,1.546-3.293,3.989v1.809c0,2.474,1.16,3.989,3.293,3.989,2.5,0,3.448-1.809,3.448-4.237Z" transform="translate(23.106 0)" fill="#4267b1"/>
    <path id="Trazado_305" data-name="Trazado 305" d="M54.53,15.122v-.866c0-4.979,2.83-8.566,8.582-8.566s8.6,3.572,8.6,8.566v.866c0,4.963-2.83,8.551-8.6,8.551S54.53,20.085,54.53,15.122Zm11.952-1.237c0-2.288-.943-4.1-3.371-4.1S59.741,11.6,59.741,13.9v1.546c0,2.288.943,4.1,3.371,4.1s3.371-1.778,3.371-4.1Z" transform="translate(29.786 3.108)" fill="#4267b1"/>
    <path id="Trazado_306" data-name="Trazado 306" d="M66.76,15.122v-.866c0-4.979,2.83-8.566,8.6-8.566s8.582,3.572,8.582,8.566v.866c0,4.963-2.83,8.551-8.582,8.551S66.76,20.085,66.76,15.122Zm11.952-1.237c0-2.288-.928-4.1-3.355-4.1S71.986,11.6,71.986,13.9v1.546c0,2.288.943,4.1,3.371,4.1s3.355-1.778,3.355-4.1Z" transform="translate(36.466 3.108)" fill="#4267b1"/>
    <path id="Trazado_307" data-name="Trazado 307" d="M84.356,17.4l5.149-8.226h5.536l-5.4,8.52,5.613,8.721h-5.5l-5.365-8.442V26.41H79.13V.51L84.356,0Z" transform="translate(43.223 0)" fill="#4267b1"/>
    <path id="Trazado_308" data-name="Trazado 308" d="M103.339,26.378a14.612,14.612,0,0,1-3.726-.557l-3.092.557V.509L99.612.03V10.2a6.912,6.912,0,0,1,4.809-2.149c4.855,0,7.731,3.912,7.731,9.092a8.736,8.736,0,0,1-8.814,9.231Zm.448-15.462a6.278,6.278,0,0,0-4.175,1.654v9.788a5.922,5.922,0,0,0,3.835,1.252c3.494,0,5.443-2.861,5.443-6.386,0-3.8-1.917-6.309-5.1-6.309Z" transform="translate(52.722 0.016)" fill="#4080ff"/>
    <path id="Trazado_309" data-name="Trazado 309" d="M108.51,25.821V.509L111.6.03V25.821Z" transform="translate(59.271 0.016)" fill="#4080ff"/>
    <path id="Trazado_310" data-name="Trazado 310" d="M116.213,5.59V16.414c0,2.969,1.129,3.974,3.386,3.974a6.943,6.943,0,0,0,4.639-1.871V5.59h3.092V22.861l-3.092.479v-2.5a8.164,8.164,0,0,1-5.783,2.5c-3.293,0-5.365-2.211-5.365-5.922V5.59Z" transform="translate(61.773 3.054)" fill="#4080ff"/>
    <path id="Trazado_311" data-name="Trazado 311" d="M127.434,14.888a5.582,5.582,0,0,0,5.675,5.783,9.525,9.525,0,0,0,5.149-1.438l.557,2.861a11.21,11.21,0,0,1-5.783,1.423,8.442,8.442,0,0,1-8.705-8.968c0-5.566,3.68-9.277,8.489-9.277,4.159,0,6.571,2.629,6.571,6.726A9.911,9.911,0,0,1,139,14.733l-11.566.077Zm8.984-2.489v-.263c0-2.551-1.206-4.237-3.912-4.237a4.994,4.994,0,0,0-4.917,4.639Z" transform="translate(67.901 2.879)" fill="#4080ff"/>
    <path id="Trazado_312" data-name="Trazado 312" d="M143.834,5.22c4.855,0,7.731,3.912,7.731,9.092a8.736,8.736,0,0,1-8.752,9.277,15.6,15.6,0,0,1-3.708-.448l0,8.643H136.01V5.715L139.1,5.22V7.369a6.85,6.85,0,0,1,4.731-2.149Zm-4.747,14.3a5.845,5.845,0,0,0,3.819,1.252c3.494,0,5.443-2.861,5.443-6.386,0-3.8-1.9-6.309-5.1-6.309a6.185,6.185,0,0,0-4.159,1.654Z" transform="translate(74.293 2.851)" fill="#4080ff"/>
    <path id="Trazado_313" data-name="Trazado 313" d="M151.092,22.986H148V5.715l3.092-.495V8.313A5.443,5.443,0,0,1,155.9,5.22a6.262,6.262,0,0,1,3.232.866l-.789,2.891a5.35,5.35,0,0,0-2.737-.789c-1.654,0-3.232,1.206-4.515,3.572Z" transform="translate(80.842 2.851)" fill="#4080ff"/>
    <path id="Trazado_314" data-name="Trazado 314" d="M158.261,4.721a1.995,1.995,0,0,1-2.026-2.211,2.041,2.041,0,1,1,4.051,0,1.995,1.995,0,0,1-2.026,2.211Zm-1.546,21V8.447l3.092-.495V25.719Z" transform="translate(85.332 0.119)" fill="#4080ff"/>
    <path id="Trazado_315" data-name="Trazado 315" d="M172.414,22.986V12.163c0-2.953-1.129-3.974-3.572-3.974a6.958,6.958,0,0,0-4.5,1.871V22.986H161.25V5.715l3.092-.495v2.6a8.2,8.2,0,0,1,5.6-2.6c3.494,0,5.551,2.211,5.551,5.938V22.986Z" transform="translate(88.08 2.851)" fill="#4080ff"/>
    <path id="Trazado_316" data-name="Trazado 316" d="M179.122,24.755c-3.34,0-5.118-1.546-4.994-5.365l.263-9.618-2.861-.186.108-1.948,2.861-.866L174.576,3h2.969l-.124,3.943H182.8l-.124,2.768h-5.365l-.263,9.726c0,1.624.711,2.443,2.258,2.443a9.061,9.061,0,0,0,3.092-.634l.572,2.706A11.117,11.117,0,0,1,179.122,24.755Z" transform="translate(93.695 1.639)" fill="#4080ff"/>
  </g>
</svg>
